<?xml version="1.0" encoding="UTF-8" standalone="no"?>
<!-- Created with Inkscape (http://www.inkscape.org/) -->
<svg
   xmlns:dc="http://purl.org/dc/elements/1.1/"
   xmlns:cc="http://web.resource.org/cc/"
   xmlns:rdf="http://www.w3.org/1999/02/22-rdf-syntax-ns#"
   xmlns:svg="http://www.w3.org/2000/svg"
   xmlns="http://www.w3.org/2000/svg"
   xmlns:sodipodi="http://sodipodi.sourceforge.net/DTD/sodipodi-0.dtd"
   xmlns:inkscape="http://www.inkscape.org/namespaces/inkscape"
   width="242.75197"
   height="460.24014"
   id="svg1968"
   sodipodi:version="0.32"
   inkscape:version="0.44"
   version="1.0"
   sodipodi:docbase="C:\Dokumente und Einstellungen\Andreas\Eigene Dateien\Eigene Bilder\sonstiges\Logos\Vektor\Computer, Electronics"
   sodipodi:docname="Java.svg">
  <defs
     id="defs1970" />
  <sodipodi:namedview
     id="base"
     pagecolor="#ffffff"
     bordercolor="#666666"
     borderopacity="1.0"
     inkscape:pageopacity="0.0"
     inkscape:pageshadow="2"
     inkscape:zoom="0.35"
     inkscape:cx="350"
     inkscape:cy="205.14359"
     inkscape:document-units="px"
     inkscape:current-layer="layer1"
     width="68.51mm"
     height="129.89mm"
     units="mm"
     inkscape:window-width="904"
     inkscape:window-height="574"
     inkscape:window-x="56"
     inkscape:window-y="28" />
  <metadata
     id="metadata1973">
    <rdf:RDF>
      <cc:Work
         rdf:about="">
        <dc:format>image/svg+xml</dc:format>
        <dc:type
           rdf:resource="http://purl.org/dc/dcmitype/StillImage" />
      </cc:Work>
    </rdf:RDF>
  </metadata>
  <g
     inkscape:label="Ebene 1"
     inkscape:groupmode="layer"
     id="layer1"
     transform="translate(3824.556,782.8939)">
    <g
       id="Ebene_x0020_1"
       transform="translate(-3826.724,-785.8793)">
  <metadata
   id="CorelCorpID_0Corel-Layer" />

  <g
   id="_198302696">
   <path
   d="M 82.6262,243.321 C 82.6262,243.321 70.6871,250.5882 90.93145,252.66451 C 115.32815,255.77888 128.30555,255.26027 155.29775,250.06917 C 155.29775,250.06917 162.56495,254.74082 172.42745,258.37463 C 111.69475,284.32883 34.87045,256.81693 82.62615,243.32103 L 82.6262,243.321 z M 74.83977,209.5808 C 74.83977,209.5808 61.86287,219.44313 82.10697,221.5194 C 108.58047,224.11516 129.34377,224.63377 165.16037,217.36677 C 165.16037,217.36677 169.83223,222.55766 177.61827,225.1532 C 104.42767,246.9548 22.41227,227.22951 74.84027,209.5807 L 74.83977,209.5808 z M 218.10677,268.7562 C 218.10677,268.7562 226.93126,276.02361 208.24423,281.7331 C 173.46553,292.1149 62.38123,295.2292 31.23623,281.7331 C 20.33563,277.06166 41.09898,270.3133 47.84673,269.2752 C 54.5949,267.71812 58.22833,267.71812 58.22833,267.71812 C 46.28993,259.41266 -21.19117,284.84762 23.96883,292.11482 C 148.02983,312.35912 250.28983,283.29054 218.10583,268.75612 L 218.10677,268.7562 z M 88.33577,174.283 C 88.33577,174.283 31.75587,187.7791 68.09187,192.4508 C 83.66437,194.5269 114.29017,194.0083 142.83997,191.93177 C 166.19847,189.85546 189.55757,185.70283 189.55757,185.70283 C 189.55757,185.70283 181.25211,189.33622 175.54197,192.97024 C 117.92407,208.02324 7.35897,201.27528 39.02297,185.70283 C 66.01527,172.72553 88.33547,174.28303 88.33547,174.28303 L 88.33577,174.283 z M 189.55777,230.8629 C 247.69497,200.756 220.70287,171.6875 202.01567,175.3213 C 197.34381,176.35935 195.2675,177.39761 195.2675,177.39761 C 195.2675,177.39761 196.82479,174.28304 200.45818,173.24498 C 237.31338,160.26768 266.38198,212.17588 188.51978,232.42018 C 188.51978,232.42018 189.03839,231.90115 189.55783,230.86289 L 189.55777,230.8629 z M 94.04607,312.8782 C 150.10737,316.51201 235.75607,310.80189 237.83207,284.3288 C 237.83207,284.3288 233.67965,294.7106 191.63397,302.4964 C 143.87817,311.3211 84.70297,310.28283 49.92397,304.57271 C 49.92397,304.57271 57.19096,310.80186 94.04597,312.87817 L 94.04607,312.8782 z "
   id="_227268128"
   style="fill:#4e7896" />

   <path
   d="M 154.26,2.98539 C 154.26,2.98539 186.4432,35.68759 123.6339,85.00069 C 73.2827,124.96989 112.2141,147.80949 123.6339,173.76359 C 94.0461,147.29079 72.7637,123.93169 87.2979,102.13009 C 108.5807,69.94689 167.2369,54.37469 154.26,2.98549 L 154.26,2.98539 z M 137.6495,151.96239 C 152.7025,169.09229 133.49667,184.66499 133.49667,184.66499 C 133.49667,184.66499 171.90877,164.93969 154.25997,140.54259 C 138.16807,117.18409 125.71017,105.76429 193.19107,66.83279 C 193.19107,66.83279 86.77907,93.30629 137.64947,151.96249 z"
   id="_230367536"
   style="fill:#f58219" />

  </g>

 </g>
  </g>
</svg>
